<svg width="40" height="39" viewBox="0 0 40 39" fill="none" xmlns="http://www.w3.org/2000/svg">
<path d="M12.5595 0.00128589C13.8195 0.0396052 15.0395 0.259605 16.2215 0.661605H16.3395C16.4195 0.699605 16.4795 0.741605 16.5195 0.779605C16.9615 0.921605 17.3795 1.08161 17.7795 1.30161L18.5395 1.64161C18.8395 1.80161 19.1995 2.09961 19.3995 2.22161C19.5995 2.33961 19.8195 2.46161 19.9995 2.59961C22.2215 0.901605 24.9195 -0.0183948 27.6995 0.00128589C28.9615 0.00128589 30.2215 0.179605 31.4195 0.581605C38.8015 2.98161 41.4615 11.0816 39.2395 18.1616C37.9795 21.7796 35.9195 25.0816 33.2215 27.7796C29.3595 31.5196 25.1215 34.8396 20.5595 37.6996L20.0595 38.0016L19.5395 37.6796C14.9615 34.8396 10.6995 31.5196 6.80154 27.7596C4.12154 25.0616 2.05954 21.7796 0.779545 18.1616C-1.48046 11.0816 1.17955 2.98161 8.64155 0.539605C9.22155 0.339605 9.81954 0.199605 10.4195 0.121605H10.6595C11.2215 0.0396052 11.7795 0.00128589 12.3395 0.00128589H12.5595ZM30.3795 6.32161C29.5595 6.03961 28.6595 6.48161 28.3595 7.32161C28.0795 8.1616 28.5195 9.0816 29.3595 9.37961C30.6415 9.8596 31.4995 11.1216 31.4995 12.5196V12.5816C31.4615 13.0396 31.5995 13.4816 31.8795 13.8216C32.1595 14.1616 32.5795 14.3596 33.0195 14.4016C33.8395 14.3796 34.5395 13.7216 34.5995 12.8796V12.6416C34.6595 9.8396 32.9615 7.30161 30.3795 6.32161Z" fill="#F0899C"/>
</svg>
