<svg width="14" height="16" viewBox="0 0 14 16" fill="none" xmlns="http://www.w3.org/2000/svg">
<path d="M11.7186 0.185547H1.71414C1.5125 0.186036 1.31293 0.226268 1.12685 0.303941C0.940769 0.381615 0.771825 0.495207 0.629677 0.638221C0.48753 0.781235 0.374967 0.950867 0.298426 1.13742C0.221885 1.32397 0.182867 1.52377 0.183604 1.72541V11.8176C0.182867 12.0192 0.221885 12.219 0.298426 12.4056C0.374967 12.5921 0.48753 12.7618 0.629677 12.9048C0.771825 13.0478 0.940769 13.1614 1.12685 13.2391C1.31293 13.3167 1.5125 13.357 1.71414 13.3575H10.1806L9.7849 11.9763L10.7405 12.8628L11.6439 13.699L13.2491 15.1176V1.72541C13.2499 1.52377 13.2108 1.32397 13.1343 1.13742C13.0578 0.950867 12.9452 0.781235 12.8031 0.638221C12.6609 0.495207 12.492 0.381615 12.3059 0.303941C12.1198 0.226268 11.9202 0.186036 11.7186 0.185547V0.185547ZM8.83671 9.93803C8.83671 9.93803 8.56794 9.61699 8.34396 9.33142C8.88554 9.20487 9.36489 8.89081 9.69717 8.44483C9.42853 8.62361 9.1405 8.77138 8.83858 8.88532C8.49126 9.03358 8.128 9.1413 7.75601 9.20636C7.11658 9.32409 6.46081 9.32156 5.82231 9.19889C5.44746 9.12555 5.08009 9.01809 4.72481 8.87785C4.42479 8.76153 4.13819 8.61322 3.86995 8.43549C4.18945 8.87248 4.6516 9.1841 5.1765 9.31648C4.95252 9.60019 4.67628 9.93616 4.67628 9.93616C4.23278 9.94814 3.79313 9.8509 3.39604 9.65301C2.99896 9.45512 2.65661 9.16264 2.39914 8.80133C2.4228 7.2879 2.78977 5.79959 3.47238 4.44864C4.07417 3.97604 4.80794 3.70211 5.5722 3.66471L5.64686 3.7543C4.92843 3.9321 4.25801 4.26603 3.6833 4.73235C3.6833 4.73235 3.84755 4.64276 4.12379 4.51584C4.66104 4.27067 5.23365 4.11193 5.82044 4.04548C5.86224 4.03683 5.90471 4.03183 5.94737 4.03054C6.44768 3.96536 6.954 3.96035 7.4555 4.01561C8.24416 4.10569 9.00759 4.34917 9.70277 4.73235C9.1572 4.28825 8.52355 3.96506 7.84373 3.78417L7.94826 3.66471C8.71252 3.70211 9.44629 3.97604 10.0481 4.44864C10.7307 5.79959 11.0977 7.2879 11.1213 8.80133C10.8619 9.1626 10.5182 9.45501 10.12 9.65312C9.72187 9.85123 9.28131 9.94903 8.83671 9.93803Z" fill="#657791"/>
</svg>
