<svg width="55" height="39" viewBox="0 0 55 39" fill="none" xmlns="http://www.w3.org/2000/svg">
<path d="M44.5637 15.9498C44.8819 14.9953 45.2001 14.0409 45.2001 12.7682C45.2001 5.7688 39.4732 0.0419922 32.4738 0.0419922C27.7015 0.0419922 23.2473 2.9054 21.3384 7.04143C20.3839 6.72327 19.1113 6.40511 18.1568 6.40511C13.7026 6.40511 10.2029 9.90483 10.2029 14.359C10.2029 14.9953 10.2029 15.6316 10.521 15.9498C4.79423 16.9043 0.658203 21.3585 0.658203 27.0853C0.658203 33.1302 5.7487 38.2207 11.7937 38.2207H22.9291V28.676H13.3844L27.7015 14.359L42.0185 28.676H32.4738V38.2207H43.6093C49.6542 38.2207 54.7447 33.1302 54.7447 27.0853C54.7447 21.3585 50.2906 16.5861 44.5637 15.9498Z" fill="url(#paint0_linear_78_1049)"/>
<defs>
<linearGradient id="paint0_linear_78_1049" x1="27.7015" y1="0.0419922" x2="45.2001" y2="49.3562" gradientUnits="userSpaceOnUse">
<stop stop-color="#E7E7E7"/>
<stop offset="1" stop-color="#848484" stop-opacity="0"/>
</linearGradient>
</defs>
</svg>
