<svg width="36" height="36" viewBox="0 0 36 36" fill="none" xmlns="http://www.w3.org/2000/svg">
<path d="M35.0971 34.7293L27.6324 14.8234C27.5795 14.6117 27.3677 14.5058 27.1559 14.5058C26.9442 14.5058 26.6795 14.6117 26.6265 14.8234L23.503 23.0293L16.9912 10.4293V8.04694H23.8207C23.9795 8.04694 24.0854 7.994 24.1912 7.88812L27.3148 4.65871C27.5265 4.44694 27.5265 4.1293 27.3148 3.91753L24.1912 0.68812C24.1383 0.582238 24.0324 0.529297 23.8736 0.529297H16.4618C16.1442 0.529297 15.9324 0.741062 15.9324 1.05871V10.4293L9.52653 22.9234L7.88536 19.1117C7.77947 18.8999 7.62065 18.794 7.40889 18.794C7.19712 18.794 6.98536 18.8999 6.93241 19.1117L0.261825 34.7293C0.208884 34.8881 0.208884 35.0999 0.314767 35.2058C0.420649 35.3117 0.579472 35.4705 0.738296 35.4705H34.6207C34.7795 35.4705 34.9383 35.3646 35.0442 35.2587C35.1501 35.0999 35.203 34.9411 35.0971 34.7293ZM26.2559 4.28812L23.6618 6.98812H16.9912V1.58812H23.6089L26.2559 4.28812ZM7.40889 20.6999L13.2854 34.4117H1.53241L7.40889 20.6999ZM14.3971 34.4117L10.0559 24.194L16.4618 11.6999L28.1618 34.4117C23.3442 34.4117 19.4795 34.4117 14.3971 34.4117ZM29.3795 34.4117L24.1912 24.2999L27.1559 16.4646L33.8795 34.4117H29.3795Z" fill="#F0899C"/>
</svg>
