<svg width="12" height="17" viewBox="0 0 12 17" fill="none" xmlns="http://www.w3.org/2000/svg">
<path d="M6 0.0419922C4.40935 0.0441022 2.88445 0.676921 1.75969 1.80168C0.634929 2.92644 0.00211004 4.45134 0 6.04199C0 10.3495 5.59 15.7445 5.8275 15.972C5.8737 16.0169 5.93558 16.042 6 16.042C6.06442 16.042 6.1263 16.0169 6.1725 15.972C6.41 15.7445 12 10.3495 12 6.04199C11.9979 4.45134 11.3651 2.92644 10.2403 1.80168C9.11555 0.676921 7.59065 0.0441022 6 0.0419922V0.0419922ZM6 8.79199C5.4561 8.79199 4.92442 8.63071 4.47218 8.32853C4.01995 8.02636 3.66747 7.59687 3.45933 7.09437C3.25119 6.59188 3.19673 6.03894 3.30284 5.50549C3.40895 4.97205 3.67086 4.48204 4.05546 4.09745C4.44005 3.71285 4.93005 3.45094 5.4635 3.34483C5.99695 3.23872 6.54988 3.29318 7.05238 3.50132C7.55488 3.70946 7.98437 4.06194 8.28654 4.51417C8.58871 4.96641 8.75 5.49809 8.75 6.04199C8.74956 6.7712 8.45969 7.47042 7.94406 7.98605C7.42843 8.50168 6.72921 8.79156 6 8.79199Z" fill="#F0899C"/>
</svg>
