<svg width="16" height="17" viewBox="0 0 16 17" fill="none" xmlns="http://www.w3.org/2000/svg">
<path d="M14.7162 10.5442C13.7366 10.5442 12.7747 10.391 11.8633 10.0897C11.4167 9.93741 10.8676 10.0772 10.595 10.3571L8.796 11.7152C6.70963 10.6015 5.42446 9.31674 4.32596 7.24603L5.64408 5.49387C5.98654 5.15187 6.10938 4.65228 5.96221 4.18353C5.65971 3.26728 5.50604 2.30591 5.50604 1.32591C5.50608 0.617951 4.93013 0.0419922 4.22221 0.0419922H1.28387C0.575958 0.0419922 0 0.617951 0 1.32587C0 9.44045 6.60158 16.042 14.7162 16.042C15.4241 16.042 16 15.466 16 14.7581V11.828C16 11.1201 15.424 10.5442 14.7162 10.5442Z" fill="#F0899C"/>
</svg>
