<svg width="40" height="40" viewBox="0 0 40 40" fill="none" xmlns="http://www.w3.org/2000/svg">
<path d="M29.3389 0.000976562C36.1409 0.000976562 39.9809 3.85898 40.0009 10.661V29.341C40.0009 36.141 36.1409 40.001 29.3389 40.001H10.6609C3.85885 40.001 0.000854492 36.141 0.000854492 29.341V10.661C0.000854492 3.85898 3.85885 0.000976562 10.6609 0.000976562H29.3389ZM21.0009 8.26098C20.4389 7.92098 19.7589 7.92098 19.2209 8.26098C18.6789 8.59898 18.3809 9.22098 18.4389 9.84098V30.221C18.5409 31.081 19.2589 31.721 20.0989 31.721C20.9609 31.721 21.6789 31.081 21.7589 30.221V9.84098C21.8389 9.22098 21.5409 8.59898 21.0009 8.26098ZM11.6609 14.821C11.1209 14.481 10.4389 14.481 9.90085 14.821C9.35885 15.161 9.06085 15.779 9.12085 16.401V30.221C9.19885 31.081 9.91885 31.721 10.7789 31.721C11.6409 31.721 12.3589 31.081 12.4389 30.221V16.401C12.5009 15.779 12.1989 15.161 11.6609 14.821ZM30.1789 22.081C29.6409 21.741 28.9609 21.741 28.4009 22.081C27.8589 22.421 27.5609 23.019 27.6409 23.661V30.221C27.7209 31.081 28.4389 31.721 29.3009 31.721C30.1409 31.721 30.8589 31.081 30.9609 30.221V23.661C31.0189 23.019 30.7209 22.421 30.1789 22.081Z" fill="#F0899C"/>
</svg>
