<svg width="20" height="28" viewBox="0 0 20 28" fill="none" xmlns="http://www.w3.org/2000/svg">
<path d="M16.0554 3.18608C15.0518 2.28117 13.8664 1.60113 12.5787 1.19148C11.2909 0.781842 9.9305 0.652053 8.58852 0.810809C6.56297 1.04215 4.66449 1.91517 3.17044 3.30232C1.6764 4.68946 0.665097 6.51803 0.284294 8.52086C-0.0965101 10.5237 0.173144 12.5958 1.05386 14.4345C1.93457 16.2731 3.38018 17.782 5.17948 18.7406V24.3755C5.17978 24.6737 5.2984 24.9597 5.50932 25.1706C5.72023 25.3815 6.00621 25.5002 6.30448 25.5005H7.42948V26.6255C7.42978 26.9237 7.5484 27.2097 7.75932 27.4206C7.97023 27.6315 8.25621 27.7502 8.55448 27.7505H10.8045C11.1028 27.7502 11.3887 27.6315 11.5997 27.4206C11.8106 27.2097 11.9292 26.9237 11.9295 26.6255V25.5005H13.0545C13.3528 25.5002 13.6387 25.3815 13.8497 25.1706C14.0606 24.9597 14.1792 24.6737 14.1795 24.3755V18.7408C15.5371 18.0178 16.7001 16.9776 17.5695 15.7087C18.4389 14.4398 18.9891 12.9797 19.1733 11.4526C19.3575 9.92549 19.1702 8.37648 18.6274 6.93727C18.0845 5.49806 17.2022 4.21119 16.0554 3.18608ZM13.0545 21.0005V22.1255H6.30448V21.0005H13.0545ZM10.8053 26.6255H8.55448V25.5005H10.8048L10.8053 26.6255ZM11.367 24.3755H6.30448V23.2505H13.0545V24.3755H11.367ZM13.3703 17.8911C13.2756 17.9372 13.1957 18.0091 13.1399 18.0984C13.0841 18.1878 13.0545 18.291 13.0545 18.3964V19.8755H10.242V17.2959L11.7647 15.7731C11.8671 15.6671 11.9238 15.525 11.9226 15.3775C11.9213 15.23 11.8621 15.0889 11.7578 14.9846C11.6535 14.8803 11.5124 14.8212 11.365 14.8199C11.2175 14.8186 11.0754 14.8753 10.9693 14.9778L9.67948 16.2675L8.38967 14.9778C8.28358 14.8753 8.14149 14.8186 7.99401 14.8199C7.84652 14.8212 7.70544 14.8803 7.60115 14.9846C7.49686 15.0889 7.4377 15.23 7.43642 15.3775C7.43514 15.525 7.49183 15.6671 7.5943 15.7731L9.11698 17.2959V19.8755H6.30448V18.3964C6.30452 18.291 6.27492 18.1878 6.21907 18.0984C6.16322 18.0091 6.08337 17.9372 5.98864 17.8911C4.34662 17.0936 3.00774 15.7848 2.17318 14.1613C1.33863 12.5378 1.05347 10.6873 1.36057 8.88789C1.66766 7.08847 2.55041 5.43731 3.87618 4.1825C5.20196 2.92769 6.89914 2.13702 8.71272 1.92928C9.03755 1.893 9.36416 1.87474 9.69102 1.87461C11.7645 1.86842 13.7659 2.63477 15.305 4.0242C16.3368 4.94632 17.1256 6.10826 17.6019 7.40745C18.0782 8.70663 18.2273 10.1031 18.0361 11.4736C17.8449 12.844 17.3192 14.1464 16.5055 15.2655C15.6918 16.3847 14.615 17.2864 13.3703 17.8909V17.8911Z" fill="#F0899C"/>
</svg>
