<svg width="18" height="15" viewBox="0 0 18 15" fill="none" xmlns="http://www.w3.org/2000/svg">
<path d="M17.3329 0.551038C17.3191 0.487303 17.2885 0.428392 17.2444 0.38032C17.2003 0.332248 17.1443 0.296736 17.082 0.27741C16.8552 0.232685 16.6206 0.249456 16.4025 0.325983C16.4025 0.325983 1.27089 5.76455 0.406832 6.36686C0.220095 6.49638 0.158029 6.5714 0.127266 6.66045C-0.0222308 7.08898 0.442991 7.27787 0.442991 7.27787L4.34287 8.54887C4.40875 8.56026 4.47637 8.55619 4.5404 8.53699C5.42767 7.97678 13.4665 2.90036 13.9312 2.72981C14.0041 2.70768 14.058 2.72981 14.0462 2.78378C13.8562 3.43466 6.91401 9.60398 6.87569 9.64176C6.85706 9.65704 6.84242 9.67662 6.83302 9.6988C6.82362 9.72099 6.81974 9.74512 6.82172 9.76913L6.45904 13.5746C6.45904 13.5746 6.30684 14.7619 7.49203 13.5746C8.33234 12.7332 9.13866 12.037 9.54289 11.6986C10.884 12.6241 12.3272 13.648 12.9495 14.1812C13.0539 14.2826 13.1777 14.3619 13.3134 14.4144C13.4492 14.4669 13.5941 14.4915 13.7396 14.4867C14.3333 14.464 14.4952 13.8147 14.4952 13.8147C14.4952 13.8147 17.252 2.72118 17.3448 1.2343C17.3534 1.08858 17.3659 0.995212 17.3669 0.895367C17.3719 0.779563 17.3604 0.663644 17.3329 0.551038Z" fill="#657791"/>
</svg>
