<svg width="18" height="15" viewBox="0 0 18 15" fill="none" xmlns="http://www.w3.org/2000/svg">
<path d="M17.4649 1.85257C16.8196 2.12145 16.1743 2.33655 15.4214 2.39032C16.1743 1.96012 16.712 1.26105 16.9809 0.454422C16.2818 0.884622 15.529 1.1535 14.7224 1.31482C14.0771 0.615747 13.1629 0.185547 12.1949 0.185547C10.259 0.185547 8.6458 1.74502 8.6458 3.7347C8.6458 4.00357 8.69957 4.27245 8.75335 4.54132C5.79572 4.38 3.21452 2.98185 1.43995 0.830847C1.1173 1.3686 0.955975 1.96012 0.955975 2.60542C0.955975 3.84225 1.60127 4.91775 2.51545 5.56305C1.92392 5.56305 1.38617 5.40172 0.9022 5.13285V5.18662C0.9022 6.90742 2.13902 8.30557 3.75227 8.62822C3.42962 8.682 3.16075 8.73577 2.8381 8.73577C2.623 8.73577 2.4079 8.73577 2.1928 8.68199C2.623 10.0801 3.96737 11.1019 5.47307 11.1556C4.29002 12.1236 2.73055 12.6613 1.06352 12.6613C0.79465 12.6613 0.472 12.6613 0.203125 12.6076C1.81637 13.5755 3.6985 14.167 5.68817 14.167C12.1949 14.167 15.7441 8.78955 15.7441 4.11112C15.7441 3.9498 15.7441 3.78847 15.7441 3.68092C16.3894 3.14317 16.9809 2.55165 17.4649 1.85257Z" fill="#657791"/>
</svg>
