<svg width="21" height="15" viewBox="0 0 21 15" fill="none" xmlns="http://www.w3.org/2000/svg">
<path d="M19.8711 3.18283C19.8711 3.18283 19.6875 1.83711 19.0759 1.22542C18.3418 0.430223 17.4855 0.430223 17.1185 0.369054C14.3658 0.185547 10.2675 0.185547 10.2675 0.185547C10.2675 0.185547 6.16919 0.185547 3.41658 0.369054C3.04957 0.430223 2.1932 0.430223 1.45917 1.22542C0.847483 1.83711 0.663976 3.18283 0.663976 3.18283C0.663976 3.18283 0.480469 4.77323 0.480469 6.36362V7.83168C0.480469 9.42207 0.663976 11.0125 0.663976 11.0125C0.663976 11.0125 0.847483 12.3582 1.45917 12.9699C2.1932 13.7651 3.17191 13.7039 3.60009 13.8262C5.19049 13.9486 10.2675 14.0098 10.2675 14.0098C10.2675 14.0098 14.3658 14.0098 17.1185 13.8262C17.4855 13.7651 18.3418 13.7651 19.0759 12.9699C19.6875 12.3582 19.8711 11.0125 19.8711 11.0125C19.8711 11.0125 20.0546 9.42207 20.0546 7.83168V6.36362C20.0546 4.77323 19.8711 3.18283 19.8711 3.18283ZM8.24894 9.66675V4.16154L13.5095 6.91414L8.24894 9.66675Z" fill="#657791"/>
</svg>
